# xmcd CD database file
#
# Track frame offsets:
#	150
#	22083
#	45790
#	67723
#
# Disc length: 1216 seconds
#
# Revision: 1
# Processed by: cddbd v1.5.1PL2 Copyright (c) Steve Scherf et al.
# Submitted via: CDex 1.51
#
DISCID=2304be04
DTITLE=CooRie - いろは
DYEAR=2006
DGENRE=Anime
TTITLE0=いろは
TTITLE1=君にヘッドフォン
TTITLE2=いろは (off vocal)
TTITLE3=君にヘッドフォン (off vocal)
EXTD=YEAR: 2006
EXTT0=
EXTT1=
EXTT2=
EXTT3=
PLAYORDER=
